<svg xmlns="http://www.w3.org/2000/svg" version="1.1" viewBox="0 0 287 47">
  <defs>
    <style>
      .cls-1, .cls-2 {
        fill: #fff;
      }

      .cls-1, .cls-3, .cls-4, .cls-5, .cls-6, .cls-7, .cls-8, .cls-9 {
        fill-rule: evenodd;
        isolation: isolate;
      }

      .cls-1, .cls-5 {
        opacity: .4;
      }

      .cls-3 {
        opacity: .1;
      }

      .cls-3, .cls-4, .cls-5, .cls-6, .cls-7, .cls-8, .cls-9 {
        fill: #f3ce12;
      }

      .cls-4 {
        opacity: .5;
      }

      .cls-6 {
        opacity: .6;
      }

      .cls-7 {
        opacity: .2;
      }

      .cls-8 {
        opacity: .3;
      }

      .cls-9 {
        opacity: .7;
      }
    </style>
  </defs>
  <!-- Generator: Adobe Illustrator 28.6.0, SVG Export Plug-In . SVG Version: 1.2.0 Build 709)  -->
  <g>
    <g id="Layer_1">
      <g>
        <g id="Layer_1-2">
          <path class="cls-2" d="M86.6,40.7c-.9.5-3.3,1-6.1,1-8.3,0-12.5-5.1-12.5-11.9s5.9-12.7,13.1-12.7,4.9.6,5.9,1l-1.1,4.3c-1.1-.5-2.6-.9-4.6-.9-4.3,0-7.6,2.6-7.6,7.9s2.8,7.8,7.7,7.8,3.5-.3,4.5-.7l.8,4.2h-.1Z"/>
          <path class="cls-2" d="M89.9,29.7c0-2.5,0-4.2-.2-5.7h4.7l.2,3.2h0c.9-2.5,3-3.6,4.7-3.6s.7,0,1.1,0v5c-.4,0-.8-.2-1.5-.2-2,0-3.4,1-3.7,2.7v10h-5.4v-11.7l.2.2h0Z"/>
          <path class="cls-2" d="M107.2,34.4c.2,2.2,2.3,3.3,4.9,3.3s3.4-.3,4.8-.7l.7,3.6c-1.8.7-3.9,1.1-6.3,1.1-5.9,0-9.2-3.5-9.2-8.9s2.7-9.3,8.8-9.3,7.7,4.4,7.7,8.7,0,1.8-.2,2.1h-11.2ZM113.6,30.7c0-1.3-.6-3.5-3-3.5s-3.2,2.1-3.4,3.5h6.4Z"/>
          <path class="cls-2" d="M131.7,41.3l-.3-1.7h0c-1.1,1.4-2.9,2.1-4.9,2.1-3.5,0-5.6-2.5-5.6-5.3,0-4.5,4-6.6,10.2-6.6v-.2c0-.9-.5-2.2-3.2-2.2s-3.6.6-4.8,1.3l-1-3.5c1.2-.7,3.5-1.6,6.7-1.6,5.8,0,7.6,3.5,7.6,7.5v6.1c0,1.7,0,3.3.3,4.2h-5ZM131,33.1c-2.8,0-5,.7-5,2.7s.9,2.1,2.1,2.1,2.4-.8,2.8-2v-2.8h0Z"/>
          <path class="cls-2" d="M146.3,19v4.9h3.9v4h-3.9v6.3c0,2.1.6,3.1,2.1,3.1s1.2,0,1.6-.2v4.1c-.7.3-2,.5-3.5.5s-3.2-.7-4.1-1.5c-1-1-1.5-2.7-1.5-5.1v-7.1h-2.3v-4h2.3v-3.7l5.3-1.2h0Z"/>
          <path class="cls-2" d="M158.8,19.1c0,1.5-1.1,2.7-2.9,2.7s-2.8-1.2-2.8-2.7,1.1-2.7,2.9-2.7,2.8,1.1,2.9,2.7h0ZM153.3,41.3v-17.4h5.4v17.4h-5.4Z"/>
          <path class="cls-2" d="M167,24l2.3,8c.5,1.5.7,2.8,1,4.2h0c.3-1.4.6-2.7.9-4.2l2.2-8h5.7l-6.4,17.4h-5.4l-6.3-17.4h6Z"/>
          <path class="cls-2" d="M185.4,34.4c.2,2.2,2.3,3.3,4.9,3.3s3.4-.3,4.8-.7l.7,3.6c-1.8.7-3.9,1.1-6.3,1.1-5.9,0-9.2-3.5-9.2-8.9s2.7-9.3,8.8-9.3,7.7,4.4,7.7,8.7,0,1.8-.2,2.1h-11.2ZM191.7,30.7c0-1.3-.6-3.5-3-3.5s-3.2,2.1-3.4,3.5h6.4Z"/>
          <path class="cls-2" d="M227.5,32.2c0-2.9-.2-6.3-.2-9.8h0c-.7,3.1-1.8,6.4-2.7,9.2l-2.9,9.3h-4.2l-2.6-9.2c-.7-2.8-1.6-6.3-2.1-9.3h0c0,3.3-.3,6.9-.4,9.9l-.5,9.1h-5l1.5-23.9h7.2l2.3,8c.7,2.7,1.5,5.8,2.1,8.6h0c.7-2.8,1.5-5.9,2.2-8.6l2.5-7.9h7.1l1.3,23.9h-5.2l-.4-9.1h0v-.2Z"/>
          <path class="cls-2" d="M242.9,19.1c0,1.5-1.1,2.7-2.9,2.7s-2.8-1.2-2.8-2.7,1.1-2.7,2.9-2.7,2.8,1.1,2.9,2.7h0ZM237.3,41.3v-17.4h5.4v17.4h-5.4Z"/>
          <path class="cls-2" d="M247,29.6c0-2.1,0-4-.2-5.5h4.7l.3,2.4h0c.7-1.1,2.4-2.8,5.3-2.8s6.3,2.3,6.3,7.5v10.3h-5.4v-9.6c0-2.2-.8-3.7-2.7-3.7s-2.3,1-2.7,2.1c0,.4-.2.8-.2,1.3v10h-5.4v-11.9h0Z"/>
          <path class="cls-2" d="M284.6,16.1v20c0,2,0,4,.2,5.2h-4.8l-.2-2.5h0c-1.1,2-3.2,2.9-5.4,2.9-4.1,0-7.4-3.5-7.4-8.9s3.6-9.2,7.7-9.2,3.8.7,4.6,2h0v-9.4h5.4-.2,0ZM279.2,31.3v-.9c-.3-1.5-1.5-2.6-3.2-2.6s-3.7,2.1-3.7,4.9,1.4,4.8,3.7,4.8,2.8-1,3.1-2.6v-3.4h0v-.2Z"/>
        </g>
        <path class="cls-5" d="M57.5,24.5h.7v.5-.5h-.7Z"/>
        <path class="cls-5" d="M2.2,24.5v.9c0-.3,0-.6,0-.9Z"/>
        <path class="cls-1" d="M58.1,25.1c0,.3,0,.6,0,.8,0-.3,0-.6,0-.8Z"/>
        <path class="cls-5" d="M57.6,28c0,.3,0,.6-.3.9,0-.3,0-.6.3-.9Z"/>
        <path class="cls-4" d="M57.3,29c0,.2,0,.4-.2.5,0-.2,0-.4.2-.5Z"/>
        <path class="cls-8" d="M2.6,27.1c0,.5.2.9.4,1.4.3.6.5,1.3.7,2-.5-1.1-.9-2.2-1.1-3.4Z"/>
        <path class="cls-5" d="M57.1,29.5c0,.4-.3.8-.5,1.1v-.3c0-.3.3-.6.4-.9h0Z"/>
        <path class="cls-7" d="M56.7,30.7c0,.2-.2.3-.3.5,0-.2,0-.4.3-.5Z"/>
        <path class="cls-8" d="M56.4,31.1c0,.2,0,.3-.2.4,0-.2,0-.3.2-.4Z"/>
        <path class="cls-4" d="M3.9,31c.3.4.6.8.7,1.2-.3-.4-.5-.8-.7-1.2Z"/>
        <path class="cls-5" d="M56.2,31.5c0,.2,0,.3-.3.4,0-.2,0-.3.3-.4Z"/>
        <path class="cls-4" d="M20.7,40.3c.3,0,.5.3.7.5-.3,0-.6-.2-.7-.5Z"/>
        <path class="cls-4" d="M16.1,40.7c.3,0,.6,0,.8.3-.3,0-.6-.2-.8-.3Z"/>
        <path class="cls-9" d="M33.9,40.6c-.3.4-.7.8-1.1,1.1,0,0,0,.3,0,.4-.2,0-.2-.3,0-.5.4-.4.8-.7,1.2-1h-.1Z"/>
        <path class="cls-4" d="M43.6,40.8h0c-.2,0-.4.2-.6.3.2,0,.4-.2.7-.3h-.1Z"/>
        <path class="cls-6" d="M21.5,40.8c.3.2.5.3.8.5-.3,0-.6-.2-.8-.5Z"/>
        <path class="cls-7" d="M16.9,41c.4,0,.8.2,1.2.4-.4,0-.8-.2-1.2-.4Z"/>
        <path class="cls-8" d="M36.3,41.2c-.3.2-.7.3-1.1.5.3-.2.7-.4,1.1-.5Z"/>
        <path class="cls-5" d="M18.7,41.5c.6,0,1.1.2,1.6.4-.6,0-1.1-.2-1.6-.4Z"/>
        <path class="cls-9" d="M22.7,41.6c.3,0,.4.4.3.7v-.4c-.1,0-.2-.2-.2-.3h0Z"/>
        <path class="cls-3" d="M35.2,41.6c0,0-.3.2-.5.2,0,0,.3-.2.5-.2Z"/>
        <path class="cls-5" d="M41,41.6c-.2,0-.5.2-.7.2h0c.2,0,.4,0,.7-.2Z"/>
        <path class="cls-8" d="M40.1,41.8c-.2,0-.4.2-.6,0,.2,0,.4,0,.6,0Z"/>
        <path class="cls-4" d="M34.7,41.8c-.2,0-.5.2-.8.3.2-.2.5-.2.8-.3Z"/>
        <path class="cls-8" d="M39.5,42c-.2,0-.3,0-.5,0,.2,0,.3-.2.5,0Z"/>
        <path class="cls-8" d="M21.1,42c.2,0,.5,0,.7,0-.2,0-.5,0-.7,0Z"/>
        <path class="cls-5" d="M32.8,42.1h.7-.7c0,0,0,0,0,0Z"/>
        <path class="cls-6" d="M37.1,42.1c.3,0,.6.2.9,0h-.8c0,0-.1,0-.1,0Z"/>
        <g>
          <path class="cls-2" d="M21.7,41.9c-.1,0-.6-.1-1.1-.2-.8-.1-1.2-.2-2.4-.5-.5-.1-3.3-1-3.4-1.1,0,0-.3-.1-.6-.2-1.2-.5-3.8-1.9-5-2.8-3-2.2-5.2-4.8-6.4-7.4-.1-.3-.2-.6-.3-.6-.3-.7-.7-2.2-.9-3.7,0-.5-.1-1,0-1,0,0,3.3,0,3.7,0,.8.2,1.5.4,2.4.7.3.1.3.1.5.7,1.4,4.5,2.7,6.8,5.7,9.8,1.1,1.1,2.3,2.1,3.2,2.8,1.6,1.1,2.5,1.7,4.6,2.9.6.3.7.4.7.6s0,.2-.3.1c-.2,0-.4,0-.5,0h0Z"/>
          <path class="cls-2" d="M37,41.9c-.1-.2,0-.3,1.1-.9,3.3-1.8,5.5-3.4,7.4-5.4,1.7-1.7,2.5-2.6,3.4-4.3.4-.6,1-1.8,1.2-2.4.4-.9,1.2-3.3,1.2-3.5s.3-.4.7-.5c.3,0,.7-.2.9-.3,1.1-.3,1.6-.4,3.3-.4s1.6,0,1.7,0c0,0-.4,2.8-.6,3.6-.3.9-.7,1.9-1,2.5-1.2,2.3-3.5,4.8-6.2,6.7-1.6,1.1-4,2.4-6,3.1-.4.1-.8.3-.8.3-.4.2-2.1.7-3.2.9-.9.2-2.1.4-2.5.5-.4,0-.5,0-.6,0h0Z"/>
          <path class="cls-2" d="M25.8,41.7c-.3,0-.7-.3-1.1-.4-.5-.2-.8-.4-1.7-.9-1-.6-3.8-2.3-5.1-3.3-1.3-1-3.1-2.6-4.3-4-1.7-2-2.6-3.6-3.5-6.1-.3-.8-.3-.9,0-.7.9.5,2.3,1.5,3.2,2.3.3.2,1.4,1.3,2.5,2.4,1.1,1.1,2.5,2.5,3.2,3.1.7.6,2,1.9,3,2.9,2.1,2,3.2,3.1,4.1,3.9.7.6.7.6.7.8,0,.2-.6.1-1.2,0h0Z"/>
          <path class="cls-2" d="M32.6,41.8c0-.2-.1-.2,1.8-1.9.7-.6,1.5-1.4,1.8-1.7.4-.3,1-.9,1.3-1.3.6-.6,1-1,2.7-2.4.3-.2,1.5-1.5,2.8-2.7,2.6-2.5,3.1-3,4-3.7,1.1-.9,2.8-2,2.8-1.8s-.3,1-.6,1.8c-1.3,3.3-3.8,6.4-7.2,9-1.1.9-3.4,2.3-5.3,3.4-1.2.7-2.8,1.3-3.5,1.4-.3,0-.4,0-.5-.1h0Z"/>
          <path class="cls-2" d="M25.6,38.4c-1.9-1.8-5.2-5.4-6.7-7.3-2-2.5-2.8-4.1-3.6-6.8-.2-.8-.5-2.2-.7-3.9-.1-1-.3-1.8-.4-2.1-.2-.7-.2-.7.1-.6.5,0,1.7.5,2.2.7.3.1.5.2.5.2,0,0,1.5.8,2,1.2.3.2.8.6,1.2.9.4.3.7.6.8.6,0,0,0,.1,0,.4-.5,1.7-.6,2.8-.6,4.7,0,1.6,0,2.3.4,3.6.3,1.2.9,2.5,1.6,3.7.8,1.3,2.4,3.5,4.2,5.6.4.5.7.8.7.8s-.7-.7-1.6-1.5h0Z"/>
          <path class="cls-2" d="M32.7,39.4c.2-.3.7-.8,1.1-1.2.3-.4.7-.9.9-1.1.5-.6,1.8-2.3,2.2-3,.9-1.4,1.4-2.4,1.8-3.6.5-1.6.6-2.2.7-4.2,0-1.4,0-1.7-.1-2.5,0-.5-.2-1.3-.4-1.7s-.2-.8-.2-.8c0-.1.9-.9,1.8-1.5,1.6-1.1,3.4-1.9,4.7-2.1h.4s0,.2,0,.2c-.2.5-.3,1.2-.5,2.6-.3,2-.4,2.5-.7,3.6-.9,3.4-2.1,5.6-5.5,9.4-1.5,1.7-3.2,3.5-4.4,4.6-.6.6-1.3,1.2-1.5,1.4-.2.2-.5.4-.5.4s.1-.2.4-.5h0Z"/>
          <path class="cls-2" d="M31.1,39.1c-.1-.2-.3-1.8-.3-2.6,0-1.6.4-4.8.9-6.3.7-2.4,1.6-4.3,3.1-6,.9-1.1,2.6-2.6,2.7-2.4.1.2.4,1.4.5,2.1.2,1,.2,2.7,0,3.7-.5,3.3-1.9,5.9-5.6,10.3-.5.5-.9,1.1-1,1.2l-.2.2h0Z"/>
          <path class="cls-2" d="M27.4,38.5c-.2-.2-.7-.9-1.1-1.5-3.1-4-4.3-6.3-4.6-9.1-.2-1.7,0-4.6.5-5.7v-.2c0,0,.6.4.6.4.7.6,1.9,1.9,2.4,2.5,1,1.3,1.9,3,2.2,4.2.6,2.2.8,3.2.8,5.6,0,1.7,0,3-.3,3.6,0,.2-.2.4-.2.4,0,0-.2-.1-.3-.4Z"/>
          <path class="cls-2" d="M29.5,33.3c0-1-.1-1.3-.3-2.4-.4-2.5-1.5-4.9-3.2-7-.7-.8-2.2-2.4-2.8-2.9l-.5-.4.2-.6c.1-.3.2-.7.3-.8,0-.3.8-1.8,1-2.2.5-.9.8-1.5,1.4-2.3.3-.5.6-.8.6-.9,0,0,1.2-1.5,1.8-2.3.7-.8,1.7-1.7,1.8-1.7s.2,0,.2.1c.4.3,1.7,1.7,2.3,2.5.6.8,2.1,2.9,2.6,3.7.5.8,1.2,2.3,1.3,2.9,0,0,.1.4.3.7.1.3.2.6.2.7s-.2.3-.5.5c-1,.8-2.5,2.3-3,3.2-.1.2-.3.4-.4.6-.1.1-.3.4-.4.5,0,.1-.2.3-.2.3-.2.1-1.2,2.2-1.5,3.3-.4,1.2-.9,3.3-1,4.6,0,1.1-.1,1-.2,0h0Z"/>
          <path class="cls-2" d="M45.2,26.8c.9-1.9,1.5-3.8,1.9-6.3.4-2.5.7-4,.9-4.4.2-.5.9-.9,2.2-1.2h.4c0,0,0,.7,0,.7,0,2.9-.5,5-1.6,7.2-.6,1.2-1.7,2.6-2.7,3.4-.6.5-1.1.9-1.2.9s0-.1.1-.3Z"/>
          <path class="cls-2" d="M13.9,26.6c-1.6-1.2-2.5-2.3-3.3-3.8-.5-.9-.8-1.7-1-2.7-.3-1.2-.4-2.1-.5-3.9,0-1.4,0-1.5,0-1.4,0,0,.4.1.7.2.6.1,1.2.4,1.4.6.4.4.7,1.3,1.2,4.8.4,2.7,1,4.6,1.9,6.5,0,.1,0,.2,0,.2,0,0-.3-.2-.6-.4h0Z"/>
          <path class="cls-2" d="M21.5,19.5c-.3-.3-1.9-1.5-3.1-2.2-.3-.2-.7-.4-.7-.4-.2,0-.3-.1-.6-.3-.2,0-.2-.1-.2-.4,0-.4.2-2.4.4-3.1.1-.7.4-1.6.6-2.3,0-.3.2-.6.2-.8,0-.2.2-.7.4-1.2l.3-.8h.2c.1.2.4.4.6.5.7.4.8.5,1.5,1.1.6.5,2,1.8,2.5,2.5.4.5,1.1,1.5,1.1,1.6,0,0,0,.2-.2.4-1.2,1.8-2.2,3.9-2.6,5.3-.1.3-.2.4-.3.2h0Z"/>
          <path class="cls-2" d="M37.8,19.4c-.1-.3-.6-1.4-.6-1.7-.1-.4-1.3-2.7-1.8-3.5-.2-.4-.4-.7-.4-.7,0-.1.8-1.2,1.2-1.7.8-1,2.1-2.2,2.9-2.8.7-.5,1.7-1.2,1.8-1.2,0,0,.6,1.7.6,1.9,0,.1.1.6.2.9.4,1.5.7,3.2.9,5.2v.5s-.5.2-.5.2c-.6.3-2,1.2-3.1,2-.4.3-.8.6-.9.7l-.3.2h0q0-.1,0-.1Z"/>
          <path class="cls-2" d="M15.5,15.8s-1.3-.3-1.8-.3h-.4s0-.7,0-.7c0-1.6.3-3.3.7-4.9.2-.7.2-.9.3-.9.2,0,1.5.7,1.9,1l.3.2v.5c-.2.3-.3.6-.3.7-.2.6-.5,3-.5,3.8s0,.7-.2.6h0Z"/>
          <path class="cls-2" d="M43.7,15.6c0-.8-.3-3.3-.6-4.7v-.7c-.1,0,0-.1,0-.1,0,0,.3-.2.4-.3.2-.2,1.4-.8,1.6-.9.1,0,.2,0,.2.3,0,.2.1.7.2,1.2.3,1.3.5,3.2.5,4.3v.6h-.2c-.6.1-1.8.3-2,.4-.2,0-.2,0-.2-.2h0Z"/>
          <path class="cls-2" d="M25.6,12c-.2-1.4.8-3.7,2.6-5.8,1-1.2,1.6-1.9,1.6-1.9,0,0,1.9,2.3,2.4,3,.7,1,1.4,2.5,1.6,3.3.1.4.1.7.1,1.1,0,.3,0,.6-.1.6,0,0-.3-.2-.6-.7-.6-.8-3.3-3.6-3.5-3.6s-2,1.8-2.6,2.4c-.3.3-.7.8-.9,1.1-.6.8-.6.8-.7.3h0Z"/>
        </g>
      </g>
    </g>
  </g>
</svg>