<svg xmlns="http://www.w3.org/2000/svg" width="50" height="50" viewBox="0 0 50 50" fill="none">
<path fill-rule="evenodd" clip-rule="evenodd" d="M25 37.5C31.9035 37.5 37.5 31.9035 37.5 25C37.5 18.0964 31.9035 12.5 25 12.5C18.0964 12.5 12.5 18.0964 12.5 25C12.5 31.9035 18.0964 37.5 25 37.5ZM25 33.3333C29.6023 33.3333 33.3333 29.6023 33.3333 25C33.3333 20.3976 29.6023 16.6667 25 16.6667C20.3976 16.6667 16.6667 20.3976 16.6667 25C16.6667 29.6023 20.3976 33.3333 25 33.3333Z" fill="white"/>
<path d="M37.4998 10.417C36.3492 10.417 35.4165 11.3497 35.4165 12.5003C35.4165 13.6509 36.3492 14.5837 37.4998 14.5837C38.6505 14.5837 39.5832 13.6509 39.5832 12.5003C39.5832 11.3497 38.6505 10.417 37.4998 10.417Z" fill="white"/>
<path fill-rule="evenodd" clip-rule="evenodd" d="M3.44591 8.90813C2.0835 11.582 2.0835 15.0824 2.0835 22.083V27.9163C2.0835 34.917 2.0835 38.4174 3.44591 41.0911C4.64433 43.4432 6.55658 45.3555 8.90862 46.5538C11.5825 47.9163 15.0829 47.9163 22.0835 47.9163H27.9168C34.9175 47.9163 38.4179 47.9163 41.0916 46.5538C43.4437 45.3555 45.356 43.4432 46.5543 41.0911C47.9168 38.4174 47.9168 34.917 47.9168 27.9163V22.083C47.9168 15.0824 47.9168 11.582 46.5543 8.90813C45.356 6.55609 43.4437 4.64384 41.0916 3.44542C38.4179 2.08301 34.9175 2.08301 27.9168 2.08301H22.0835C15.0829 2.08301 11.5825 2.08301 8.90862 3.44542C6.55658 4.64384 4.64433 6.55609 3.44591 8.90813ZM27.9168 6.24967H22.0835C18.5144 6.24967 16.0882 6.25292 14.2128 6.40613C12.3861 6.55538 11.4519 6.8259 10.8002 7.15795C9.23223 7.9569 7.95739 9.23174 7.15843 10.7998C6.82639 11.4514 6.55587 12.3856 6.40662 14.2123C6.25341 16.0877 6.25016 18.5139 6.25016 22.083V27.9163C6.25016 31.4855 6.25341 33.9115 6.40662 35.787C6.55587 37.6138 6.82639 38.548 7.15843 39.1997C7.95739 40.7676 9.23223 42.0424 10.8002 42.8413C11.4519 43.1734 12.3861 43.444 14.2128 43.5932C16.0882 43.7463 18.5144 43.7497 22.0835 43.7497H27.9168C31.486 43.7497 33.912 43.7463 35.7875 43.5932C37.6143 43.444 38.5485 43.1734 39.2002 42.8413C40.7681 42.0424 42.0429 40.7676 42.8418 39.1997C43.1739 38.548 43.4445 37.6138 43.5937 35.787C43.7468 33.9115 43.7502 31.4855 43.7502 27.9163V22.083C43.7502 18.5139 43.7468 16.0877 43.5937 14.2123C43.4445 12.3856 43.1739 11.4514 42.8418 10.7998C42.0429 9.23174 40.7681 7.9569 39.2002 7.15795C38.5485 6.8259 37.6143 6.55538 35.7875 6.40613C33.912 6.25292 31.486 6.24967 27.9168 6.24967Z" fill="white"/>
</svg>