<svg xmlns="http://www.w3.org/2000/svg" width="39" height="39" viewBox="0 0 39 39" fill="none">
<g clip-path="url(#clip0_40_41)">
<path d="M28.7147 22.4841C28.6391 22.4478 25.81 21.0547 25.3073 20.8737C25.1021 20.8 24.8822 20.7281 24.6484 20.7281C24.2664 20.7281 23.9455 20.9185 23.6955 21.2924C23.4129 21.7125 22.5574 22.7125 22.2931 23.0112C22.2585 23.0507 22.2114 23.0978 22.1832 23.0978C22.1579 23.0978 21.72 22.9175 21.5875 22.8599C18.5527 21.5416 16.2492 18.3715 15.9333 17.8369C15.8882 17.76 15.8863 17.7251 15.8859 17.7251C15.897 17.6845 15.9991 17.5821 16.0517 17.5294C16.2058 17.3769 16.3728 17.1759 16.5343 16.9815C16.6108 16.8894 16.6874 16.7972 16.7626 16.7103C16.9969 16.4376 17.1012 16.2259 17.2222 15.9808L17.2856 15.8534C17.5809 15.2666 17.3287 14.7715 17.2471 14.6116C17.1802 14.4778 15.9857 11.5948 15.8587 11.2919C15.5533 10.561 15.1497 10.2207 14.5889 10.2207C14.5369 10.2207 14.5889 10.2207 14.3707 10.2299C14.105 10.2411 12.658 10.4316 12.0182 10.8349C11.3397 11.2627 10.1919 12.6262 10.1919 15.0241C10.1919 17.1822 11.5614 19.2199 12.1495 19.9949C12.1641 20.0145 12.1909 20.0541 12.2298 20.1111C14.4817 23.3998 17.289 25.837 20.1348 26.9738C22.8745 28.0682 24.1719 28.1947 24.9094 28.1947H24.9096C25.2195 28.1947 25.4676 28.1704 25.6864 28.1489L25.8253 28.1356C26.7718 28.0517 28.8517 26.974 29.3248 25.6592C29.6974 24.6237 29.7957 23.4923 29.5478 23.0816C29.3779 22.8024 29.0852 22.662 28.7147 22.4841Z" fill="white"/>
<path d="M19.7474 0.185547C9.23756 0.185547 0.687139 8.67173 0.687139 19.1026C0.687139 22.4764 1.59001 25.7788 3.30037 28.6691L0.0266814 38.3259C-0.0342995 38.5059 0.0110582 38.705 0.144233 38.8406C0.240366 38.9387 0.370769 38.9916 0.503945 38.9916C0.554972 38.9916 0.606377 38.984 0.656523 38.968L10.7259 35.7682C13.4814 37.2404 16.5957 38.0176 19.7476 38.0176C30.2564 38.0177 38.806 29.5324 38.806 19.1026C38.806 8.67173 30.2564 0.185547 19.7474 0.185547ZM19.7474 34.0771C16.7817 34.0771 13.9091 33.2207 11.4399 31.6005C11.3569 31.5459 11.2605 31.5179 11.1635 31.5179C11.1122 31.5179 11.0608 31.5257 11.0108 31.5416L5.96664 33.145L7.59498 28.341C7.64765 28.1855 7.62131 28.0141 7.5243 27.8815C5.64397 25.3122 4.65001 22.2767 4.65001 19.1026C4.65001 10.8446 11.4227 4.12613 19.7473 4.12613C28.0709 4.12613 34.8428 10.8446 34.8428 19.1026C34.843 27.3596 28.0712 34.0771 19.7474 34.0771Z" fill="white"/>
</g>
<defs>
<clipPath id="clip0_40_41">
<rect width="38.806" height="38.8061" fill="white" transform="translate(0 0.185547)"/>
</clipPath>
</defs>
</svg>